<?xml version="1.0" encoding="utf-8"?>
<!-- Generator: Adobe Illustrator 19.2.1, SVG Export Plug-In . SVG Version: 6.00 Build 0)  -->
<svg version="1.1" id="Layer_1" xmlns="http://www.w3.org/2000/svg" xmlns:xlink="http://www.w3.org/1999/xlink" x="0px" y="0px"
	 viewBox="0 0 90 112" style="enable-background:new 0 0 288.5 112;" xml:space="preserve">
<style type="text/css">
	.st0{fill:#303030;}
</style>
<g id="logomark">
	<g>
		<path class="st0" d="M40,64H8c-4.4,0-8-3.6-8-8l0,0c0-4.4,3.6-8,8-8h32c4.4,0,8,3.6,8,8l0,0C48,60.4,44.4,64,40,64z"/>
		<path class="st0" d="M96,64H64c-4.4,0-8-3.6-8-8l0,0c0-4.4,3.6-8,8-8h32c4.4,0,8,3.6,8,8l0,0C104,60.4,100.4,64,96,64z"/>
		<path class="st0" d="M80,40H24c-4.4,0-8-3.6-8-8l0,0c0-4.4,3.6-8,8-8h56c4.4,0,8,3.6,8,8l0,0C88,36.4,84.4,40,80,40z"/>
		<path class="st0" d="M80,88H24c-4.4,0-8-3.6-8-8l0,0c0-4.4,3.6-8,8-8h56c4.4,0,8,3.6,8,8l0,0C88,84.4,84.4,88,80,88z"/>
		<path class="st0" d="M64,16H40c-4.4,0-8-3.6-8-8l0,0c0-4.4,3.6-8,8-8h24c4.4,0,8,3.6,8,8l0,0C72,12.4,68.4,16,64,16z"/>
		<path class="st0" d="M64,112H40c-4.4,0-8-3.6-8-8l0,0c0-4.4,3.6-8,8-8h24c4.4,0,8,3.6,8,8l0,0C72,108.4,68.4,112,64,112z"/>
	</g>
</g>
</svg>
